PathFileType	4	(X/Y/Z)	Walk4.trc
DataRate	CameraRate	NumFrames	NumMarkers	Units	OrigDataRate	OrigDataStartFrame	OrigNumFrames
200.000000	200.000000	7	61	mm	200.000000	343	476
Frame#	Times		LFHD		RFHD		CLAV		LASI		RASI		RACR1		RUA1		RWRU		RCAR		LACR1		LUA1		LWRU		LCAR		RTH3		RTB1		LTH1		LTH2		LTH4		LLFC		LTB1		LTB2		LTB4		LTH3		LFA1		RTH2		LToe		LTB3		STRN		RTB4		LBHD		RWRR		RTB3		RMT5		RFA1		RMFC		RToe		RTH4		RTH1		RLFC		RMT1		RTB2		LElbow		RMMAL		LWRR		LMFC		T10		RElbow		LPSI		LMT1		RBack		LCAL		RBHD		LMMAL		RPSI		RElbowM		RLMAL		RCAL		C7		LMT5		LElbowM		LLMAL
			X1	Y1	Z1	X2	Y2	Z2	X3	Y3	Z3	X4	Y4	Z4	X5	Y5	Z5	X6	Y6	Z6	X7	Y7	Z7	X8	Y8	Z8	X9	Y9	Z9	X10	Y10	Z10	X11	Y11	Z11	X12	Y12	Z12	X13	Y13	Z13	X14	Y14	Z14	X15	Y15	Z15	X16	Y16	Z16	X17	Y17	Z17	X18	Y18	Z18	X19	Y19	Z19	X20	Y20	Z20	X21	Y21	Z21	X22	Y22	Z22	X23	Y23	Z23	X24	Y24	Z24	X25	Y25	Z25	X26	Y26	Z26	X27	Y27	Z27	X28	Y28	Z28	X29	Y29	Z29	X30	Y30	Z30	X31	Y31	Z31	X32	Y32	Z32	X33	Y33	Z33	X34	Y34	Z34	X35	Y35	Z35	X36	Y36	Z36	X37	Y37	Z37	X38	Y38	Z38	X39	Y39	Z39	X40	Y40	Z40	X41	Y41	Z41	X42	Y42	Z42	X43	Y43	Z43	X44	Y44	Z44	X45	Y45	Z45	X46	Y46	Z46	X47	Y47	Z47	X48	Y48	Z48	X49	Y49	Z49	X50	Y50	Z50	X51	Y51	Z51	X52	Y52	Z52	X53	Y53	Z53	X54	Y54	Z54	X55	Y55	Z55	X56	Y56	Z56	X57	Y57	Z57	X58	Y58	Z58	X59	Y59	Z59	X60	Y60	Z60	X61	Y61	Z61

343	1.715	689.29	1600.2	-37.469	686.79	1601.7	62.064	661.41	1327.3	9.9616	637.9	911.79	-91.47	660.62	930.45	154.47	601.96	1361.6	179.71	600.63	1193.3	239.16	702.66	797.72	278.53	693.03	730.41	327.94	572.96	1371.1	-136.76	551.02	1197.7	-195.47	620.81	796.8	-204.06	601.9	727.46	-234.78	613.37	589.4	189.62	627.29	332.56	114.65	615.52	741.95	-148.41	694.08	680.57	-121.37	639.76	659.83	-137.22	688.52	449.24	-107.15	667.03	346.19	-43.217	587.46	300.49	-96.303	601.65	289.32	-38.08	665.21	579.15	-123.31	557.33	903.37	-228.97	668.51	679.73	189.42	557.01	38.496	-41.74	541.88	230.3	-32.001	688.56	1194.3	12.937	608.46	248	103.15	548.74	1531.6	-62.418	645.55	788.49	315.85	587.23	165.68	88.708	616.51	24.055	110.42	641.09	909.02	307.23	580.91	439.84	29.54	702.97	26.537	53.664	613.5	670.52	210.98	615.06	754.83	236.12	618.97	441.56	152.76	647.72	33.031	22.647	565.81	252.3	147.2	523.99	1040.7	-211.13	527.15	88.363	20.999	551.97	787.33	-211.3	684.94	441.31	30.872	475.76	1208.1	29.743	589.64	1029.4	279.29	470.15	965.63	-4.3607	514.82	68.824	-10.782	478.67	1295.3	99.106	367.28	191.84	-28.432	547.66	1539.9	82.252	451.33	186.51	6.1885	482.35	969.21	95.475	561.47	1020.2	204.24	516.19	64.981	101.35	461.6	43.882	58.665	543.2	1421.6	15.118	482.88	81.511	-83.348	510.05	1025.5	-137.92	427.18	182.1	-74.194
344	1.72	697.25	1600.7	-37.626	694.7	1602.3	61.901	668.85	1328.2	10.077	645.78	913.01	-91.53	668.14	930.73	154.34	609.49	1362.8	179.79	608.86	1194.4	239.26	715.31	800.19	277.01	706.74	732.47	326.08	580.03	1371.6	-136.65	557.25	1198.3	-195.16	619.87	795.39	-203.66	599.07	726.43	-234.3	618.22	589.59	189.19	628.31	332.78	114.42	624.42	743.38	-148.87	703.85	683.05	-121.93	649.77	661.56	-137.53	701.35	451.48	-106.99	682.45	347.88	-43.059	604.24	299.87	-96.096	618.76	289.16	-37.857	676.17	581.26	-123.45	559.22	903.81	-228.48	674.12	679.4	187.74	582.13	37.913	-42.277	560.75	228.45	-31.717	696.15	1195.5	13.176	609.26	248.28	102.96	556.51	1532.4	-62.545	658.38	789.97	314.38	587.79	166.02	88.589	616.59	24.1	110.23	652.11	910.44	306.42	581.51	440.08	29.336	703.29	26.372	53.721	619.57	670.58	210.2	622.34	755.06	235.24	620.89	441.72	152.52	647.93	32.989	22.539	566.64	252.72	147.04	529.33	1041.5	-210.27	527.63	88.887	20.813	550.8	787.81	-211.25	697.92	443.86	30.832	483.37	1208.7	30.192	598.89	1030.3	279.09	477.93	966.5	-4.4403	539.04	66.564	-11.009	486.24	1296.1	99.47	387.26	184.56	-27.784	555.36	1541	82.113	471.66	181.87	6.5154	490.02	969.9	95.463	570.68	1021.4	204	516.38	65.577	101.08	461.85	44.722	58.391	550.55	1422.4	15.177	506.31	78.345	-83.427	515.33	1026.7	-136.99	447.46	176.85	-73.87
345	1.725	705.2	1601.1	-37.79	702.59	1602.9	61.73	676.3	1329.1	10.21	653.67	914.12	-91.585	675.61	930.97	154.25	617.03	1363.9	179.88	617.07	1195.5	239.37	727.95	802.64	275.46	720.46	734.53	324.19	587.14	1372.1	-136.54	563.56	1198.8	-194.82	618.93	794.13	-203.29	596.25	725.6	-233.85	623.07	589.77	188.74	629.34	333.04	114.24	633.29	744.73	-149.34	713.52	685.41	-122.49	659.68	663.19	-137.85	713.96	453.59	-106.83	697.72	349.52	-42.898	621.02	299.15	-95.905	635.85	288.93	-37.639	686.99	583.28	-123.59	561.16	904.32	-227.99	679.7	679.05	186.06	607.39	37.373	-42.833	579.71	226.53	-31.447	703.76	1196.5	13.463	610.07	248.6	102.81	564.27	1533.2	-62.668	671.23	791.42	312.9	588.35	166.4	88.495	616.65	24.146	110.02	663.13	911.79	305.61	582.17	440.4	29.17	703.6	26.209	53.769	625.63	670.61	209.4	629.6	755.25	234.37	622.8	441.92	152.3	648.14	32.949	22.437	567.47	253.2	146.9	534.67	1042.3	-209.42	528.13	89.459	20.621	549.69	788.42	-211.19	710.61	446.32	30.754	490.99	1209.3	30.608	608.12	1031.1	278.9	485.7	967.3	-4.5672	563.47	64.34	-11.247	493.82	1296.8	99.822	407.57	177.08	-27.18	563.06	1542	81.977	492.23	177.11	6.8018	497.65	970.52	95.398	579.85	1022.4	203.79	516.57	66.224	100.81	462.11	45.625	58.086	557.93	1423	15.249	529.98	75.154	-83.521	520.6	1027.7	-136.09	468	171.45	-73.58
346	1.73	713.12	1601.5	-37.957	710.47	1603.4	61.556	683.78	1329.8	10.357	661.57	915.13	-91.633	683.05	931.17	154.18	624.56	1364.8	179.98	625.26	1196.5	239.51	740.58	805.07	273.88	734.2	736.58	322.26	594.31	1372.6	-136.42	569.96	1199.3	-194.45	618.01	793.03	-202.95	593.47	724.97	-233.43	627.88	589.94	188.29	630.39	333.34	114.1	642.14	745.99	-149.82	723.1	687.64	-123.05	669.49	664.73	-138.18	726.35	455.59	-106.67	712.84	351.1	-42.743	637.79	298.32	-95.736	652.9	288.65	-37.433	697.68	585.19	-123.73	563.12	904.88	-227.49	685.24	678.69	184.4	632.8	36.906	-43.394	598.78	224.55	-31.2	711.38	1197.4	13.791	610.89	248.96	102.7	572.04	1533.8	-62.785	684.11	792.84	311.41	588.92	166.83	88.428	616.7	24.191	109.81	674.15	913.08	304.79	582.93	440.83	29.041	703.91	26.051	53.809	631.66	670.61	208.61	636.82	755.39	233.53	624.69	442.14	152.12	648.36	32.913	22.341	568.28	253.72	146.78	540	1043.1	-208.58	528.66	90.077	20.423	548.66	789.17	-211.09	723.02	448.68	30.641	498.61	1209.8	30.985	617.32	1031.8	278.72	493.47	968.01	-4.7421	588.1	62.186	-11.491	501.41	1297.5	100.16	428.23	169.45	-26.63	570.77	1542.9	81.846	513.02	172.25	7.0461	505.25	971.06	95.278	589.01	1023.4	203.61	516.75	66.921	100.52	462.38	46.587	57.748	565.35	1423.6	15.331	553.89	71.968	-83.627	525.87	1028.7	-135.21	488.82	165.93	-73.326
347	1.735	721.02	1601.8	-38.124	718.34	1603.9	61.382	691.29	1330.5	10.515	669.49	916.03	-91.671	690.44	931.33	154.14	632.1	1365.7	180.1	633.45	1197.4	239.65	753.19	807.47	272.27	747.95	738.64	320.31	601.54	1372.9	-136.29	576.43	1199.6	-194.06	617.12	792.07	-202.64	590.73	724.54	-233.04	632.65	590.11	187.84	631.47	333.68	114.03	650.97	747.15	-150.32	732.59	689.72	-123.59	679.21	666.16	-138.52	738.52	457.45	-106.52	727.81	352.63	-42.6	654.54	297.41	-95.596	669.93	288.33	-37.248	708.23	586.99	-123.87	565.13	905.5	-226.97	690.71	678.3	182.79	658.33	36.541	-43.95	617.94	222.53	-30.985	719.01	1198.2	14.153	611.74	249.35	102.63	579.82	1534.4	-62.893	697.02	794.23	309.91	589.51	167.3	88.389	616.75	24.235	109.6	685.16	914.31	303.98	583.81	441.36	28.947	704.21	25.897	53.842	637.63	670.61	207.82	643.95	755.49	232.74	626.57	442.4	151.98	648.58	32.88	22.253	569.08	254.28	146.67	545.33	1043.8	-207.74	529.22	90.74	20.218	547.7	790.05	-210.95	735.14	450.91	30.495	506.23	1210.2	31.322	626.51	1032.5	278.56	501.22	968.64	-4.9656	612.93	60.135	-11.739	509.01	1298	100.48	449.23	161.7	-26.144	578.48	1543.7	81.723	534.06	167.33	7.2467	512.81	971.51	95.103	598.14	1024.2	203.46	516.92	67.668	100.23	462.65	47.607	57.38	572.8	1424.1	15.423	578.04	68.82	-83.744	531.16	1029.7	-134.35	509.92	160.32	-73.111
348	1.74	728.91	1602	-38.288	726.19	1604.3	61.21	698.83	1331.1	10.681	677.42	916.83	-91.696	697.8	931.44	154.14	639.65	1366.4	180.22	641.62	1198.1	239.8	765.77	809.84	270.64	761.71	740.69	318.34	608.83	1373.2	-136.17	582.98	1199.9	-193.66	616.29	791.27	-202.36	588.04	724.32	-232.68	637.35	590.28	187.4	632.57	334.04	114.01	659.78	748.22	-150.81	742	691.64	-124.13	688.82	667.48	-138.85	750.45	459.18	-106.37	742.61	354.11	-42.478	671.27	296.45	-95.488	686.92	287.98	-37.091	718.62	588.67	-124	567.17	906.16	-226.43	696.12	677.89	181.27	683.99	36.306	-44.494	637.2	220.5	-30.811	726.66	1198.9	14.54	612.6	249.79	102.61	587.59	1534.8	-62.992	709.94	795.6	308.41	590.12	167.8	88.38	616.78	24.278	109.38	696.18	915.46	303.17	584.81	441.99	28.882	704.51	25.749	53.867	643.5	670.61	207.07	650.98	755.55	232	628.46	442.68	151.87	648.79	32.851	22.173	569.87	254.89	146.58	550.64	1044.5	-206.91	529.8	91.445	20.008	546.84	791.04	-210.75	746.99	452.99	30.321	513.86	1210.6	31.614	635.68	1033	278.42	508.97	969.18	-5.2378	637.93	58.22	-11.988	516.61	1298.4	100.77	470.58	153.88	-25.73	586.19	1544.4	81.611	555.32	162.4	7.4023	520.34	971.88	94.872	607.23	1024.9	203.34	517.09	68.462	99.93	462.94	48.682	56.984	580.3	1424.5	15.523	602.42	65.744	-83.872	536.47	1030.6	-133.51	531.29	154.66	-72.935
349	1.745	736.77	1602.1	-38.447	734.03	1604.6	61.043	706.4	1331.5	10.853	685.38	917.51	-91.708	705.12	931.51	154.17	647.22	1367	180.36	649.78	1198.8	239.95	778.31	812.19	268.99	775.48	742.75	316.36	616.19	1373.4	-136.04	589.6	1200.2	-193.24	615.51	790.61	-202.12	585.43	724.29	-232.35	641.96	590.45	186.98	633.71	334.43	114.04	668.56	749.18	-151.31	751.31	693.39	-124.65	698.33	668.68	-139.17	762.14	460.78	-106.24	757.26	355.53	-42.38	687.97	295.44	-95.415	703.87	287.6	-36.968	728.84	590.2	-124.1	569.26	906.87	-225.87	701.45	677.46	179.85	709.76	36.232	-45.019	656.53	218.48	-30.683	734.32	1199.4	14.946	613.48	250.25	102.64	595.36	1535.1	-63.08	722.88	796.94	306.91	590.74	168.34	88.399	616.8	24.321	109.16	707.19	916.55	302.35	585.95	442.74	28.841	704.79	25.606	53.884	649.26	670.62	206.38	657.88	755.58	231.33	630.35	442.99	151.79	649.01	32.828	22.101	570.65	255.54	146.51	555.93	1045.2	-206.07	530.4	92.19	19.793	546.08	792.15	-210.5	758.56	454.91	30.123	521.49	1210.9	31.859	644.84	1033.4	278.3	516.72	969.62	-5.5588	663.09	56.476	-12.239	524.23	1298.8	101.05	492.29	146.03	-25.391	593.91	1545	81.51	576.82	157.48	7.5121	527.84	972.17	94.585	616.3	1025.5	203.25	517.27	69.303	99.621	463.23	49.81	56.565	587.83	1424.8	15.63	627.03	62.774	-84.011	541.79	1031.4	-132.68	552.94	148.99	-72.798
